<svg xmlns="http://www.w3.org/2000/svg" viewBox="0 0 1400 420" role="img" aria-labelledby="title desc">
  <title id="title">Greco</title>
  <desc id="desc">A geometric banner for Greco, a Rust harness for evolving coding-agent skills.</desc>
  <defs>
    <linearGradient id="bg" x1="0" x2="1" y1="0" y2="1">
      <stop offset="0" stop-color="#101820"/>
      <stop offset="0.55" stop-color="#1d2b36"/>
      <stop offset="1" stop-color="#243b36"/>
    </linearGradient>
    <linearGradient id="line" x1="0" x2="1">
      <stop offset="0" stop-color="#f3c969"/>
      <stop offset="1" stop-color="#77c6b6"/>
    </linearGradient>
  </defs>
  <rect width="1400" height="420" fill="url(#bg)"/>
  <g opacity="0.22" fill="none" stroke="#ffffff" stroke-width="1">
    <path d="M120 330 C 290 120, 430 120, 600 330 S 910 540, 1080 330 1280 130, 1360 170"/>
    <path d="M80 270 C 260 70, 450 75, 640 270 S 960 470, 1150 270 1320 95, 1390 120"/>
    <path d="M130 210 C 310 30, 500 45, 690 210 S 1010 390, 1200 210 1330 70, 1390 88"/>
  </g>
  <g transform="translate(108 86)">
    <rect x="0" y="0" width="1184" height="248" rx="0" fill="none" stroke="url(#line)" stroke-width="2"/>
    <line x1="0" y1="82" x2="1184" y2="82" stroke="url(#line)" stroke-width="2"/>
    <line x1="0" y1="166" x2="1184" y2="166" stroke="url(#line)" stroke-width="2"/>
    <line x1="260" y1="0" x2="260" y2="248" stroke="url(#line)" stroke-width="2"/>
    <line x1="924" y1="0" x2="924" y2="248" stroke="url(#line)" stroke-width="2"/>
    <circle cx="260" cy="124" r="46" fill="#101820" stroke="#f3c969" stroke-width="4"/>
    <path d="M238 124 h44 M260 102 v44" stroke="#f3c969" stroke-width="4" stroke-linecap="square"/>
    <circle cx="924" cy="124" r="46" fill="#101820" stroke="#77c6b6" stroke-width="4"/>
    <path d="M902 132 l17 17 34 -52" fill="none" stroke="#77c6b6" stroke-width="5" stroke-linecap="square"/>
  </g>
  <text x="700" y="176" text-anchor="middle" font-family="Georgia, 'Times New Roman', serif" font-size="86" fill="#f8f4e8">Greco</text>
  <text x="700" y="234" text-anchor="middle" font-family="SFMono-Regular, Menlo, Consolas, monospace" font-size="22" fill="#c8d7d2">skill catalog evolution for coding agents</text>
</svg>
